<?xml version="1.0" encoding="utf-8"?>
<!-- Generator: Adobe Illustrator 21.1.0, SVG Export Plug-In . SVG Version: 6.00 Build 0)  -->
<svg version="1.1" id="blue-bird-sprite-sheets-adj_xA0_Image_1_"
	 xmlns="http://www.w3.org/2000/svg" xmlns:xlink="http://www.w3.org/1999/xlink" x="0px" y="0px" viewBox="0 0 30.9 21.8"
	 style="enable-background:new 0 0 30.9 21.8;" xml:space="preserve">
<style type="text/css">
	.st0{fill:#020203;}
	.st1{fill:#F59423;}
	.st2{fill:#00ACED;}
	.st3{fill:#FDFEFE;}
	.st4{fill:#80D4EF;}
	.st5{fill:#F29120;}
	.st6{fill:#FCFAF6;}
	.st7{fill:#EE8F20;}
	.st8{fill:#FBF2E6;}
	.st9{fill:#030505;}
	.st10{fill:#0592BE;}
	.st11{fill:#010304;}
	.st12{fill:#FCFCFC;}
	.st13{fill:#CECFD1;}
	.st14{fill:#060606;}
</style>
<g>
	<path class="st0" d="M12,18.4c-0.4,0-0.8,0-1.2,0c-0.6,0-1.2,0.1-1.8,0c-0.8,0-1.6-0.2-2.3-0.8c-0.8-0.7-1.3-1.6-1.3-2.7
		c0-1,0-2.1,0-3.1c0-0.1,0-0.2,0-0.2C5,11.8,4.7,12,4.4,12.2c-0.7,0.4-1.5,0.6-2.3,0.5c-0.5-0.1-0.9-0.4-1.2-0.9
		c-0.2-0.3-0.1-0.6,0.2-0.8c0.3-0.2,0.7-0.3,1-0.4c0.2-0.1,0.5-0.1,0.8-0.2c-0.1-0.1-0.3-0.1-0.4-0.2C1.8,10,1.1,9.5,0.7,8.8
		C0.4,8.2,0.3,7.7,0.5,7.1c0.1-0.4,0.4-0.6,0.8-0.5c0.5,0.1,1,0.3,1.4,0.7c0.9,0.6,1.7,1.3,2.5,2c0,0,0,0,0.1,0.1c0-0.1,0-0.1,0-0.2
		c0-0.8,0-1.6,0-2.4c0-1,0.3-1.9,1-2.6C6.4,4,6.4,3.9,6.4,3.8c0-0.8,0.2-1.5,0.8-2.1c0.1-0.1,0.1-0.1,0.2-0.2C7.6,2,7.9,2.4,8.1,2.9
		C8.2,3,8.3,3.2,8.6,3.1c0.1,0,0.2,0,0.3,0C9,2.5,9.2,1.9,9.7,1.6C10,2,10.2,2.5,10.5,2.9c0.1,0.1,0.2,0.2,0.3,0.2
		c2.4,0,4.8,0,7.1,0c0,0,0.1,0,0.2,0C18,3,18,3,17.9,2.9c-0.4-0.3-0.9-0.5-1.3-0.8c-0.2-0.1-0.4-0.3-0.4-0.6c0-0.3,0.3-0.3,0.5-0.4
		c0.9-0.3,1.8,0,2.5,0.6c0.1,0.1,0.1,0.1,0.2,0.2c0,0,0,0,0,0c0-0.3-0.1-0.5-0.1-0.8c-0.1-0.5,0.2-0.7,0.6-0.6
		c1,0.2,1.4,1.1,1.1,2.1c-0.1,0.2-0.2,0.4-0.2,0.6c0.4,0.3,0.8,0.6,1.2,0.9c0.6,0.6,1,1.4,1,2.4c0,0.3,0,0.7,0,1
		c0,0.1,0,0.2,0.2,0.3c2.3,1.3,4.7,2.5,7,3.8c0.1,0,0.2,0.1,0.3,0.2c0,0,0,0,0,0.1c-2.5,0-4.9,0-7.4,0c0,0.6,0,1.1,0,1.7
		c1.5,0,3.1,0,4.6,0c0,0,0,0,0,0c-0.4,0.2-0.9,0.5-1.3,0.7c-1.1,0.6-2.2,1.2-3.3,1.8c-0.1,0-0.2,0.2-0.2,0.3
		c-0.6,1.4-1.7,2.2-3.2,2.2c-2.2,0-4.4,0-6.6,0c-0.1,0-0.2,0-0.2,0C12.4,18.4,12.2,18.4,12,18.4z M23,14.2c0,0.1,0,0.2,0,0.3
		c0,0.3,0,0.5,0,0.8c0.8-0.4,1.6-0.8,2.4-1.3c-0.8,0-1.5-0.1-2.3,0C23,14,23,14.1,23,14.2z M23,9.7c0,0.5,0,1,0,1.5
		c1.7,0,3.3,0,5.1,0c-1.7-0.9-3.4-1.8-5.1-2.7c0,0.2,0,0.3,0,0.4C23,9.1,23,9.4,23,9.7z M10.5,5.3c0.6,0.6,1.2,1.2,1.9,1.8
		C13,7.8,13.6,8.6,14,9.5c0.2,0.5,0.4,1.1,0.3,1.7c0-0.1,0-0.1-0.1-0.2c0-0.1,0-0.1-0.1-0.2c-0.4-1.2-1.1-2.2-2-3.1
		c-1-0.9-2-1.7-3-2.6C8.4,4.5,7.7,3.9,7.3,2.9c0,0,0,0,0,0c0,0,0,0.1,0,0.1C7,3.8,7.2,4.5,7.5,5.2C8.1,6.4,9,7.3,10,8.2
		c0.1,0.1,0.3,0.2,0.4,0.4C9.7,8.4,9.1,8,8.5,7.6C7.9,7.2,7.4,6.6,7,6C6.6,6.4,6.6,6.7,6.8,7.1C7,7.4,7.2,7.7,7.4,7.9
		C8.1,8.6,9,9.1,9.9,9.5c0.5,0.2,1,0.5,1.6,0.7c-0.5,0-1-0.1-1.5-0.2C9.1,9.8,8.2,9.5,7.5,8.9c0,0,0,0,0,0.1c0,0,0,0,0,0.1
		c0,1,0.4,1.8,1.3,2.3c0.6,0.3,1.3,0.5,1.9,0.6c0.2,0,0.3,0,0.5,0.1c0.2,0,0.3,0,0.5,0.1c-0.9,0.1-1.7,0.1-2.6-0.1
		c-1.1-0.2-1.9-0.8-2.2-2C6.8,9.5,6.8,8.9,6.7,8.4c0-0.1,0-0.2,0-0.2C6.6,7.9,6.4,7.7,6.2,7.5c0,1.2,0,2.4,0,3.6c0,0.6,0,1.2,0,1.7
		c0,0.8,0,1.5,0,2.3c0,0.1,0,0.1,0,0.2c0.2,1.3,1.3,2.2,2.6,2.2c2,0,3.9,0,5.9,0c0.8,0,1.7,0,2.5,0c0.8,0,1.6,0,2.4,0
		c1.4,0,2.5-1.2,2.5-2.7c0-2.3,0-4.6,0-6.9c0-0.4,0-0.8,0-1.3c0-0.5-0.1-0.9-0.3-1.3C21.2,4.5,20.4,4,19.4,4c-3.3,0-6.7,0-10,0
		C9.3,4,9.3,4,9.2,4c0,0,0,0,0,0.1C9.6,4.5,10.1,4.9,10.5,5.3z"/>
	<path class="st1" d="M12,18.4c0.2,0,0.4,0,0.6,0c-0.1,0.4-0.3,0.7-0.5,1C12,19.5,12,19.6,12,19.8c0.2,0.7-0.1,1.4-0.7,1.8
		c-0.1-0.2-0.2-0.3-0.3-0.5c0.2-0.3,0.5-0.6,0.4-1c-0.5,0.2-0.9,0.4-1.3,0.6c0-0.1-0.1-0.1-0.1-0.1c-0.2-0.5-0.2-0.5,0.3-0.7
		C11.1,19.6,11.6,19.2,12,18.4z"/>
	<path class="st2" d="M22,6.7c0,0.4,0,0.8,0,1.3c0,2.3,0,4.6,0,6.9c0,1.4-1.1,2.6-2.5,2.7c-0.8,0-1.6,0-2.4,0
		c-0.3-0.4-0.5-0.8-0.9-1.1c-0.9-0.9-2-1.6-3.2-2.1c-2.2-1-4.5-1.4-6.9-1.4c0-0.6,0-1.2,0-1.7c0-1.2,0-2.4,0-3.6
		c0.2,0.2,0.3,0.4,0.5,0.6c0,0.1,0,0.2,0,0.2c0,0.5,0,1.1,0.1,1.6c0.3,1.2,1.1,1.7,2.2,2c0.9,0.2,1.7,0.2,2.6,0.1
		c-0.2,0-0.3,0-0.5-0.1c-0.2,0-0.3,0-0.5-0.1c-0.7-0.1-1.3-0.2-1.9-0.6C7.8,10.8,7.4,10.1,7.4,9c0,0,0,0,0-0.1c0,0,0,0,0-0.1
		C8.2,9.5,9.1,9.8,10,10c0.5,0.1,1,0.2,1.5,0.2c-0.5-0.2-1-0.4-1.6-0.7C9,9.1,8.1,8.6,7.4,7.9C7.2,7.7,7,7.4,6.8,7.1
		C6.6,6.7,6.6,6.4,7,6c0.4,0.6,0.9,1.2,1.5,1.6c0.6,0.4,1.2,0.8,2,0.9c-0.1-0.1-0.3-0.2-0.4-0.4C9,7.3,8.1,6.4,7.5,5.2
		C7.2,4.5,7,3.8,7.2,3.1c0,0,0-0.1,0-0.1c0,0,0,0,0,0c0.4,0.9,1.1,1.6,1.9,2.2c1,0.9,2,1.7,3,2.6c0.9,0.8,1.7,1.8,2,3.1
		c0,0.1,0,0.1,0.1,0.2c0,0.1,0,0.1,0.1,0.2c0-0.6-0.1-1.2-0.3-1.7c-0.4-0.9-0.9-1.7-1.6-2.4c-0.6-0.6-1.2-1.2-1.9-1.8
		c0,0,0.1,0,0.1,0c3,0,6,0,9,0c0.3,0,0.6,0.1,0.9,0.1C21.1,5.6,21.6,6.1,22,6.7z M16.4,9.4L16.4,9.4c0,0-0.1,0-0.1,0.1
		c-0.9,0.9-1,2.6-0.3,3.7c0.7,1,1.7,1.4,2.9,1.3c0.9-0.1,1.6-0.7,2.1-1.5c0.2-0.3,0.2-0.7,0.3-1c0-0.1,0-0.2,0-0.2
		c0.4-2-1.3-3.8-3.3-3.4C17.4,8.5,16.9,8.8,16.4,9.4C16.4,9.3,16.4,9.4,16.4,9.4z M16.9,15.6c0.1,0,0.2,0,0.3-0.1
		c0.3-0.1,0.4-0.3,0.2-0.6c0-0.1-0.1-0.2-0.2-0.3c-0.5-0.4-1-0.7-1.6-0.7c-0.1,0-0.2,0-0.3,0c-0.3,0.1-0.4,0.3-0.3,0.6
		c0,0.1,0.1,0.2,0.2,0.2C15.8,15.3,16.3,15.5,16.9,15.6z"/>
	<path class="st3" d="M6.2,12.9c2.4,0,4.7,0.5,6.9,1.4c1.2,0.5,2.3,1.1,3.2,2.1c0.3,0.3,0.6,0.7,0.9,1.1c-0.8,0-1.7,0-2.5,0
		c-2,0-3.9,0-5.9,0c-1.3,0-2.3-0.9-2.6-2.2c0-0.1,0-0.1,0-0.2C6.2,14.4,6.2,13.6,6.2,12.9z"/>
	<path class="st4" d="M22,6.7c-0.4-0.6-0.9-1.1-1.6-1.3c-0.3-0.1-0.6-0.1-0.9-0.1c-3,0-6,0-9,0c0,0-0.1,0-0.1,0
		c-0.4-0.4-0.9-0.8-1.3-1.2c0,0,0,0,0-0.1c0.1,0,0.1,0,0.2,0c3.3,0,6.7,0,10,0c1,0,1.8,0.5,2.3,1.4C22,5.8,22.1,6.2,22,6.7z"/>
	<path class="st5" d="M23,8.8c0-0.1,0-0.3,0-0.4c1.7,0.9,3.4,1.8,5.1,2.7c-1.7,0-3.4,0-5.1,0c0-0.5,0-1,0-1.5c1.1,0.3,2.3,0.7,3.4,1
		c0,0,0,0,0-0.1C25.3,10,24.1,9.4,23,8.8z"/>
	<path class="st6" d="M23,8.8c1.2,0.6,2.3,1.2,3.5,1.8c0,0,0,0,0,0.1c-1.1-0.3-2.3-0.7-3.4-1C23,9.4,23,9.1,23,8.8z"/>
	<path class="st7" d="M23,14.2c0-0.1,0.1-0.1,0.1-0.1c0.7,0,1.5,0,2.3,0c-0.8,0.4-1.6,0.8-2.4,1.3c0-0.3,0-0.6,0-0.8
		c0.5-0.1,1.1-0.2,1.6-0.3c0,0,0,0,0,0C24.1,14.2,23.5,14.2,23,14.2z"/>
	<path class="st8" d="M23,14.2c0.5,0,1.1,0,1.6,0c0,0,0,0,0,0c-0.5,0.1-1.1,0.2-1.6,0.3C23,14.4,23,14.3,23,14.2z"/>
	<path class="st9" d="M16.5,9.3c0.4-0.5,0.9-0.8,1.5-1c2-0.5,3.7,1.3,3.3,3.4c0,0.1,0,0.2,0,0.2c0,0,0,0.1-0.1,0.1
		c-0.5,1.2-1.6,1.9-2.8,1.8c-1.3-0.1-2.4-1.3-2.4-2.7C15.9,10.5,16.1,9.9,16.5,9.3C16.4,9.4,16.4,9.4,16.5,9.3
		C16.4,9.4,16.4,9.3,16.5,9.3z M17.4,9.2c-1,0.6-1.3,1.9-0.7,3c0.6,1.2,2.2,1.5,3.1,0.8c1-0.6,1.3-2,0.7-3.1
		C19.9,8.8,18.4,8.4,17.4,9.2z"/>
	<path class="st10" d="M16.4,9.4c-0.3,0.5-0.5,1.1-0.5,1.8c0,1.4,1.1,2.6,2.4,2.7c1.3,0.1,2.4-0.6,2.8-1.8c0,0,0-0.1,0.1-0.1
		c-0.1,0.3-0.1,0.7-0.3,1c-0.4,0.8-1.1,1.4-2.1,1.5c-1.2,0.2-2.2-0.2-2.9-1.3c-0.8-1.1-0.6-2.8,0.3-3.7C16.3,9.4,16.4,9.4,16.4,9.4z
		"/>
	<path class="st11" d="M16.9,15.6c-0.6,0-1.1-0.3-1.6-0.7c-0.1-0.1-0.1-0.1-0.2-0.2c-0.2-0.3,0-0.5,0.3-0.6c0.1,0,0.2,0,0.3,0
		c0.6,0,1.2,0.2,1.6,0.7c0.1,0.1,0.1,0.2,0.2,0.3c0.1,0.3,0,0.5-0.2,0.6C17.1,15.5,17,15.6,16.9,15.6z"/>
	<path class="st10" d="M16.5,9.3C16.4,9.3,16.4,9.4,16.5,9.3C16.4,9.4,16.4,9.3,16.5,9.3z"/>
	<path class="st12" d="M17.4,9.2c1-0.8,2.5-0.4,3.1,0.7c0.6,1,0.3,2.5-0.7,3.1c-0.2,0-0.3,0-0.5-0.1c-1.3-0.1-2.4-1.5-2.2-2.8
		C17.2,9.8,17.3,9.5,17.4,9.2z M19.6,10.5c-0.3-0.2-0.7-0.1-1,0.2c-0.2,0.3-0.2,0.8,0,1.1c0.3,0.3,0.7,0.4,1,0.2
		c0.3-0.2,0.5-0.6,0.4-0.9c-0.1,0.2-0.3,0.3-0.5,0.2c-0.1-0.1-0.2-0.2-0.3-0.3C19.2,10.7,19.3,10.6,19.6,10.5z"/>
	<path class="st13" d="M17.4,9.2c-0.1,0.3-0.2,0.6-0.2,0.9c-0.2,1.3,0.9,2.7,2.2,2.8c0.2,0,0.3,0,0.5,0.1c-1,0.8-2.5,0.4-3.1-0.8
		C16.1,11.1,16.5,9.7,17.4,9.2z"/>
	<path class="st14" d="M19.6,10.5c-0.2,0.1-0.4,0.2-0.3,0.4c0,0.1,0.2,0.3,0.3,0.3c0.2,0.1,0.4,0,0.5-0.2c0.1,0.3,0,0.7-0.4,0.9
		c-0.3,0.2-0.8,0.1-1-0.2c-0.2-0.3-0.2-0.7,0-1.1C18.8,10.4,19.2,10.3,19.6,10.5z"/>
</g>
</svg>
