<?xml version="1.0" encoding="utf-8"?>
<!-- Generator: Adobe Illustrator 21.1.0, SVG Export Plug-In . SVG Version: 6.00 Build 0)  -->
<svg version="1.1" id="Layer_1" xmlns="http://www.w3.org/2000/svg" xmlns:xlink="http://www.w3.org/1999/xlink" x="0px" y="0px"
	 viewBox="0 0 169.3 276.1" style="enable-background:new 0 0 169.3 276.1;" xml:space="preserve">
<style type="text/css">
	.st0{fill:#FDFDFD;}
	.st1{fill:#12160F;}
	.st2{fill:#00CA00;}
	.st3{fill:#009700;}
	.st4{fill:#885F37;}
	.st5{fill:#896038;}
	.st6{fill:#030202;}
	.st7{fill:#714923;}
	.st8{fill:#EBEFF3;}
	.st9{fill:#ECF1F5;}
	.st10{fill:#6D4723;}
	.st11{fill:#845C35;}
	.st12{fill:#0F2105;}
	.st13{fill:#27190D;}
	.st14{fill:#061302;}
	.st15{fill:#F2F2F3;}
	.st16{fill:#ED0000;}
	.st17{fill:#2E1F11;}
	.st18{fill:#F8F8F8;}
	.st19{fill:#0F1215;}
	.st20{fill:#111417;}
</style>
<g>
	<path class="st0" d="M111.2,169.4c1.6-6.4,3-12.1,4.4-17.8c0.1-0.5-0.1-1-0.2-1.5c-0.9-5.8-1.9-11.7-2.9-18.1
		c3.5-0.9,5.9-1.8,8.4-2.1c6.2-0.6,11.8-2.8,15.5-7.9c4-5.4,7.1-11.2,12.6-15.8c4-3.3,6.1-9.4,9.7-14c6.4-8-1.3-17.7,1.7-26.6
		c0.8-2.4-1.4-5.9-2.3-8.9c-0.1-0.5-0.6-0.8-0.8-1.3c-0.4-1.3-1.1-2.7-1-4c0.4-8.9-4.4-16.5-12.7-20.1c-1.5-0.6-2.9-1.9-4.1-3.1
		c-2.7-2.6-4.8-6.6-8-7.7c-6.8-2.3-12.6-6.8-19.1-8.7C103.1,9.3,92.8,7.4,83,7.2C75.6,7,68,8.6,60.2,8.1c-5.5-0.4-9,4.2-13.1,7.7
		c-3.5,3-10.1,2.1-13.5,6.9c-0.1,0.1-0.2,0.3-0.3,0.4c-1.3,0.7-2.6,1.9-4,2C17.3,26.2,8,38.4,10,50.1c0.2,1.4-0.1,3.3-1,4.3
		c-5.2,6.9-5.4,14-1.9,21.6c0.6,1.3,0.7,3.2,0.2,4.5c-3.5,9.9-1.6,18.9,6.2,25.4c8.2,6.8,17.4,12.4,26,18.9
		c5.4,4.1,12.2,6.2,18.2,9.6c1.6,1,3.2,3.5,3.3,5.4c0.1,3.2-1.7,6.5-1.6,9.7c0.2,6.1,1.2,12.3,2.1,19.5c-2.1,1.7-3.3,5-0.3,9.1
		c0.4,0.6,0.3,1.6,0.2,2.4c-0.7,13.6,0.8,26.9,3.7,40.1c0.8,3.5,0.8,7.2,0.4,10.7c-0.9,9.1-9.2,11.8-15.3,16.3
		c-0.8,0.6-2.2,0.3-2.6,0.3c-1.1-2.1-1.9-3.8-2.8-5.5c-1.8,1.1-4.2,1.8-5.4,3.3c-3.2,4.4,0.7,6.8,2.6,8.8c-0.5,2.5-1.8,5.4-1.1,6.1
		c1.4,1.3,4,1.8,6.1,1.8c4.5,0.1,9-0.2,13.4-0.6c4.4-0.4,9.3-0.3,13-2.2c5.1-2.6,8.1,0.1,11.6,2.2c0.7,0.4,0.7,2.2,0.8,3.3
		c0,1.2-0.8,3.2-0.5,3.4c1.4,0.7,3.1,1.3,4.5,1.1c5.1-0.9,7.1-5.4,5.3-13.3c4.8,2.2,8.8,3.9,12.6,5.8c6.7,3.4,13,1.6,15.4-4.7
		c1.6-4.2,4.1-6.9,9.1-6.6c1,0.1,3-1.1,3-1.7c0.1-1.2-0.6-3-1.6-3.7c-2.8-2.2-5.8-1.9-8.8-0.1c-4.2,2.4-8.1,2.1-11.8-1.4
		c-7-6.6-8.7-14.6-7.2-23.8c1.8-11.3,3.5-22.6,5.1-34c0.4-2.9-0.3-6.2,0.7-8.8C113.2,173.9,113.1,171.1,111.2,169.4z"/>
	<path class="st1" d="M111.2,169.4c1.9,1.7,1.9,4.5,0.5,8.1c-1,2.6-0.3,5.9-0.7,8.8c-1.6,11.3-3.3,22.7-5.1,34
		c-1.5,9.2,0.3,17.2,7.2,23.8c3.7,3.5,7.6,3.8,11.8,1.4c3.1-1.7,6-2.1,8.8,0.1c1,0.8,1.7,2.5,1.6,3.7c0,0.7-2,1.8-3,1.7
		c-4.9-0.3-7.5,2.4-9.1,6.6c-2.4,6.2-8.7,8-15.4,4.7c-3.9-1.9-7.9-3.6-12.6-5.8c1.9,7.9-0.2,12.4-5.3,13.3c-1.4,0.2-3.2-0.4-4.5-1.1
		c-0.3-0.2,0.5-2.2,0.5-3.4c0-1.2-0.1-2.9-0.8-3.3c-3.5-2.2-6.6-4.9-11.6-2.2c-3.7,1.9-8.6,1.8-13,2.2c-4.4,0.5-8.9,0.7-13.4,0.6
		c-2.1,0-4.7-0.5-6.1-1.8c-0.7-0.7,0.6-3.6,1.1-6.1c-2-1.9-5.9-4.4-2.6-8.8c1.2-1.6,3.6-2.3,5.4-3.3c0.8,1.7,1.7,3.3,2.8,5.5
		c0.4,0,1.8,0.3,2.6-0.3c6-4.5,14.3-7.2,15.3-16.3c0.4-3.5,0.3-7.3-0.4-10.7c-2.9-13.2-4.5-26.6-3.7-40.1c0-0.8,0.2-1.9-0.2-2.4
		c-3-4.1-1.8-7.4,0.3-9.1c-0.8-7.3-1.8-13.4-2.1-19.5c-0.1-3.2,1.7-6.5,1.6-9.7c0-1.9-1.6-4.4-3.3-5.4c-5.9-3.4-12.8-5.5-18.2-9.6
		c-8.6-6.4-17.8-12-26-18.9c-7.8-6.5-9.7-15.5-6.2-25.4c0.5-1.3,0.3-3.2-0.2-4.5c-3.4-7.6-3.2-14.7,1.9-21.6c0.8-1.1,1.2-3,1-4.3
		c-2.1-11.8,7.3-23.9,19.3-25c1.4-0.1,2.7-1.3,4-2c0.1-0.1,0.2-0.2,0.3-0.4c3.4-4.8,10-3.9,13.5-6.9c4.1-3.6,7.6-8.1,13.1-7.7
		C68,8.6,75.6,7,83,7.2c9.8,0.3,20.1,2.1,29.6,4.9c6.5,1.9,12.4,6.4,19.1,8.7c3.2,1.1,5.3,5.1,8,7.7c1.2,1.2,2.6,2.4,4.1,3.1
		c8.3,3.5,13.2,11.1,12.7,20.1c-0.1,1.3,0.6,2.7,1,4c0.1,0.5,0.6,0.8,0.8,1.3c0.9,3,3.1,6.4,2.3,8.9c-3,8.9,4.7,18.6-1.7,26.6
		c-3.7,4.6-5.7,10.7-9.7,14c-5.6,4.6-8.6,10.3-12.6,15.8c-3.7,5.1-9.3,7.2-15.5,7.9c-2.5,0.3-4.9,1.2-8.4,2.1c1,6.4,2,12.2,2.9,18.1
		c0.1,0.5,0.3,1,0.2,1.5C114.2,157.3,112.8,163,111.2,169.4z M63.5,135c0.6,1.3,1.3,2.6,1.9,4l0.1,0.2c-1.2,1.2-2.8,2.2-3.6,3.6
		c-0.8,1.2-1.6,3.4,1.6,2.4c-3.8,6.5-4.4,12.6,2.1,17.8c-0.3,0.9-0.9,1.8-1,2.7c-0.1,1.3,0.7,3.6,0.2,3.8c-3.8,2.2-3.7,4.8-1.8,8.2
		c0.7,1.1,0.3,2.9,0.4,4.3c-0.7,12.2,1,24.1,3.2,36.1c1,5.4,0.7,11.3,0.1,16.8c-0.4,2.9-2.8,5.6-4.1,8.2c-2.7,1.4-5.6,2.3-7.8,4.1
		c-5.8,4.6-8.6,4.3-11.7-1.9c-3.7,3.5-3.6,5.9,0.7,7.8c2.6,1.1,5.7,1.3,8.6,1.8c0,0.3,0,0.7,0,1c-3.4,0.6-7.6-0.6-9.2,4.1
		c6.8,0,13.1,0.5,19.3-0.2c4.5-0.4,8.8-2.3,13.2-3.6c0.9-0.8,1.7-1.6,2.4-2.2c1.8,5.7,13.9,4.1,9.7,13.9c7-1.5,7.9-4.2,4-9.4
		c-0.9-1.2-0.9-2.9-1.8-5.7c8.7,3.4,15.8,6.6,23.1,8.8c4,1.2,6.9-1.4,8.1-5.5c0.3-1.1,0.7-2.5,1.6-3.1c3.2-1.9,6.5-3.6,9.8-5.3
		c-2.1-2.6-4.6-1.5-7.2-0.1c-5,2.6-9.7,2-13.7-1.9c-5.8-5.7-9.6-12.2-8.5-20.8c0.5-4.3,0.8-8.6,1.2-12.8c-0.1-1.4-0.2-2.7-0.3-4.1
		c1.1-1.7,2.9-3.3,3.1-5.1c0.7-7,1-14.1,1.4-21.2c0.1-1.3-0.2-2.9,0.4-3.8c2.8-4.4,1.1-7.4-2.6-9.9c0.9-2.1,6.6-2,2.8-6.2
		c5.9-6.7,5.9-10.7,0.1-17.8c0.6-1.1,2-2.4,1.8-3.3c-1-4.9-0.4-9.1,3.4-12.6c3.3-0.4,6.6-0.5,9.9-1.2c9.1-1.8,14.8-9.1,13.7-17.4
		c9.1-1.3,12.7-5.7,12-14.7c5.5,1,7-2.9,8.3-6.9c1.9-6,0.9-9.4-2.9-11.2c5.1-11,4.3-15.9-3.4-23.3c4-2.9,2.2-6.5,1-9.8
		c-2.4-6.6-8.6-10.9-14.4-10.5c-2-9.3-7.8-12.9-19.8-12.6c-2.6-7.5-14.2-11-20.3-6.1c-8.1-5.8-16.2-7.4-22.8-3.7
		c-3,1.7-5.5,2.2-8.4,0.4c-8.6-3.4-17.8,0.9-17.7,8.3c-8.8-1.4-13.6,1.1-16.9,9.1c-6.2-2.6-12.8,0.3-17.4,7.4
		c-4.5,7.1-4.8,12.4-0.9,16.1c-9.2,9.3-9.8,14.1-3.5,27.2c-4.8,6.2-3.9,16.4,2.2,23.9c4.5,5.6,11.1,8.5,14.9,6.7
		c4.1,8.4,10,14.4,20,15.2c0.6,0.1,1.6,0.2,1.8,0.6c2.7,5.8,8.5,6.3,13.4,8.4C63.5,134.4,63.5,134.7,63.5,135z"/>
	<path class="st2" d="M67.5,11.2c2.9,1.8,5.4,1.3,8.4-0.4c6.6-3.7,14.7-2,22.8,3.7c6.1-4.9,17.8-1.4,20.3,6.1
		c12-0.3,17.8,3.4,19.8,12.6c5.9-0.4,12,3.9,14.4,10.5c1.2,3.2,2.9,6.9-1,9.8c7.7,7.4,8.4,12.2,3.4,23.3c3.8,1.8,4.8,5.2,2.9,11.2
		c-1.2,4-2.8,7.9-8.3,6.9c0.7,9-2.9,13.4-12,14.7c1.1,8.2-4.6,15.6-13.7,17.4c-3.2,0.6-6.6,0.8-9.9,1.2c-1.8,0.2-3.6,0.2-5.4,0.7
		c-5.1,1.3-10.2,2.7-15.2,4c-4.6-0.5-9.3-1-13.9-1.6c0.1,0.9,0.3,1.8,0.4,2.8c0,0,0.1,0,0.1,0c-5.3-0.1-10.6-0.2-16-0.3
		c-0.4-0.7-0.6-1.7-1.2-2.1c-5.2-3.1-8-7.8-9.8-13.3c-0.7-2-1.1-4.6-2.5-5.7c-7.4-5.7-7.9-12.8-5-20.8c-7.8-6.8-9.6-14.1-6.4-23.5
		c0.5-1.5,0.3-3.5-0.1-5.2c-2.8-11.5-1.4-21.7,8.1-29.9c1.4-1.2,2.4-3.3,2.9-5.2c2.1-7.5,6.3-12.6,13.9-14.9
		C65.6,12.8,66.6,11.8,67.5,11.2z"/>
	<path class="st3" d="M67.5,11.2c-1,0.7-1.9,1.6-3,1.9C57,15.4,52.7,20.5,50.6,28c-0.5,1.9-1.5,4-2.9,5.2
		c-9.4,8.2-10.9,18.4-8.1,29.9c0.4,1.7,0.6,3.7,0.1,5.2c-3.3,9.4-1.4,16.7,6.4,23.5c-2.9,8-2.5,15.1,5,20.8c1.5,1.1,1.8,3.7,2.5,5.7
		c1.8,5.5,4.6,10.3,9.8,13.3c0.6,0.4,0.8,1.4,1.2,2.1c-0.4,0.1-0.7,0.2-1.1,0.3c-4.9-2.1-10.8-2.6-13.4-8.4
		c-0.2-0.4-1.2-0.5-1.8-0.6c-9.9-0.8-15.9-6.8-20-15.2c-3.8,1.9-10.4-1.1-14.9-6.7c-6.1-7.5-7-17.7-2.2-23.9
		c-6.3-13.1-5.7-17.9,3.5-27.2c-3.9-3.7-3.6-9,0.9-16.1c4.5-7.2,11.2-10,17.4-7.4c3.4-8,8.1-10.6,16.9-9.1
		C49.8,12.1,58.9,7.8,67.5,11.2z"/>
	<path class="st4" d="M104.5,212.1c-0.4,4.3-0.6,8.6-1.2,12.8c-1.1,8.6,2.7,15.1,8.5,20.8c4,3.9,8.7,4.5,13.7,1.9
		c2.6-1.4,5.1-2.5,7.2,0.1c-3.3,1.8-6.6,3.4-9.8,5.3c-0.8,0.5-1.3,2-1.6,3.1c-1.2,4.1-4.1,6.7-8.1,5.5c-7.4-2.2-14.4-5.4-23.1-8.8
		c0.8,2.8,0.9,4.5,1.8,5.7c3.9,5.3,3,8-4,9.4c4.2-9.8-7.9-8.2-9.7-13.9c-0.7,0.6-1.6,1.4-2.4,2.2c-0.5-2.9-1.4-5.8-1.4-8.7
		c-0.1-5.7,0.4-11.3,0.7-17c0-0.5,0.6-1,0.9-1.5c2.4,1.8,4.7,4,7.4,5.4c3.6,1.8,7.2,0.5,9.7-2.4c2.1-2.5,6.4-4.1,4.5-8.8
		c1-0.7,2-1.4,2.9-2.1C101.8,218.1,103.1,215.1,104.5,212.1z M110.5,252.1c0.3,0.3,0.7,0.7,1,1c0.3,0.5,0.6,1,0.9,1.4
		c0.2-0.2,0.4-0.4,0.6-0.6c-0.5-0.3-0.9-0.6-1.4-1C111.2,252.7,110.9,252.3,110.5,252.1c-0.2-0.5-0.5-0.9-0.7-1.3
		c-0.6-0.4-1.3-0.8-1.9-1.1c-2.8-2.2-5.7-3.6-9.3-0.9c3.2,0.5,6,1,8.8,1.5c0.6,0.4,1.2,0.8,1.8,1.1
		C109.6,251.6,110,251.9,110.5,252.1z"/>
	<path class="st5" d="M94,132.9c5.1-1.4,10.1-2.8,15.2-4c1.7-0.4,3.6-0.5,5.4-0.7c-3.8,3.5-4.4,7.7-3.4,12.6
		c0.2,0.9-1.2,2.2-1.8,3.3c0,0,0.1,0,0.1,0c-0.4-0.3-0.7-0.7-1.1-1l0.1,0.1c-0.9-0.4-1.8-0.7-2.7-1.1c-0.3-0.1-0.6-0.1-0.9-0.2
		c-7.1-2.6-12.7,0.7-16,9.4c-1.6,4.2,2.5,9.1,7.5,11.9c5.2,2.9,8.8,0.9,12.9-1.4c3.8,4.2-1.9,4.1-2.8,6.2c-0.7,2-1.3,3.9-2,5.9
		c-9.8,3.1-20,2-30,2.1c0-3.4-0.1-6.8-0.1-10.2c7.8-2.3,12.3-7.5,11.1-13.2c-1.2-5.7-5-11.2-13.9-10.3c0-1.9,0-3.8,0-5.7
		c3-0.8,6-1.6,9-2.3c0,0-0.1,0-0.1,0c2.8,1.9,5.5,3.9,8.7,6.1c0.3-2.5,0.4-4.1,0.6-5.7C91.3,133.9,92.6,133.4,94,132.9z"/>
	<path class="st6" d="M104.5,212.1c-1.4,3-2.7,6-4.1,9c-2.3-1.3-4.5-3.2-7.1-3.9c-7.5-2.3-14.7-0.8-21.7,2.1
		c-1.7-6.2-3.6-12.4-5-18.7c-0.5-2.5,0-5.2,0.1-7.8c12.9,2.8,25.8,2.5,38.7-0.1c-0.4,5.1-0.8,10.2-1.3,15.4
		C104.3,209.4,104.4,210.8,104.5,212.1z"/>
	<path class="st7" d="M66.7,192.8c-0.1,2.6-0.6,5.3-0.1,7.8c1.4,6.3,3.3,12.5,5,18.7c0.7,1.6,1.4,3.2,2,4.8c0.7,1.6,1.5,3.3,2.2,4.9
		c-0.3,0.5-0.9,1-0.9,1.5c-0.3,5.7-0.7,11.3-0.7,17c0,2.9,0.9,5.8,1.4,8.7c-4.4,1.2-8.7,3.1-13.2,3.6c-6.2,0.6-12.5,0.2-19.3,0.2
		c1.6-4.7,5.9-3.5,9.2-4.1c2.1-0.9,4.2-1.7,6.3-2.6c0.6-0.4,1.3-0.7,1.9-1.1c0.7-0.6,1.4-1.3,2.1-1.9c2.1-0.8,4.1-1.6,6.2-2.4
		c-0.2-0.5-0.4-0.9-0.6-1.4c-2,1.1-4,2.2-6,3.3c-0.7,0.6-1.4,1.2-2.1,1.9c-0.6,0.4-1.3,0.7-1.9,1.1c-2,0.7-3.9,1.3-5.9,2
		c-2.9-0.6-6-0.7-8.6-1.8c-4.3-1.8-4.3-4.3-0.7-7.8c3,6.2,5.9,6.5,11.7,1.9c2.3-1.8,5.1-2.7,7.8-4.1c1.4-2.5,3.8-5.2,4.1-8.2
		c0.7-5.5,0.9-11.4-0.1-16.8c-2.2-12-3.9-23.9-3.2-36.1c0.6,0,1.2,0,1.7,0C65.8,185.6,66.3,189.2,66.7,192.8z"/>
	<path class="st8" d="M71.6,142.1c9-0.8,12.8,4.7,13.9,10.3c1.2,5.8-3.3,10.9-11.1,13.2c-2.3-0.6-4.6-1.1-6.9-1.7
		c-0.7-0.4-1.3-0.7-2-1.1l0.2,0c-6.5-5.3-6-11.4-2.1-17.8C66.2,144.1,68.9,143.1,71.6,142.1z M73.1,148.1c-2.1,2.7-4.2,4.2-4.4,5.9
		c-0.1,1.4,2.3,2.9,3.6,4.3c1.6-1.5,3.9-2.8,4.7-4.7C77.3,152.7,75,150.7,73.1,148.1z"/>
	<path class="st9" d="M109.3,161.9c-4.1,2.3-7.8,4.3-12.9,1.4c-5-2.8-9.1-7.8-7.5-11.9c3.2-8.7,8.9-12,16-9.4
		c0.3,0.1,0.6,0.1,0.9,0.2c0.9,0.4,1.8,0.7,2.7,1.1c0,0-0.1-0.1-0.1-0.1c0.4,0.3,0.7,0.7,1.1,1c0,0-0.1,0-0.1,0
		C115.2,151.2,115.2,155.2,109.3,161.9z M107.3,153.6c-2.4-1.7-4.3-4-5.4-3.6c-1.8,0.6-3.1,2.9-4.7,4.4c1.4,1.3,3,3.8,4.2,3.7
		C103.2,157.8,104.7,155.7,107.3,153.6z"/>
	<path class="st10" d="M67.5,164c2.3,0.6,4.6,1.1,6.9,1.7c0,3.4,0.1,6.8,0.1,10.2c-8.7-2.1-8.7-2.1-9.2,6.1c-0.6,0-1.2,0-1.7,0
		c-0.1-1.5,0.3-3.2-0.4-4.3c-2-3.4-2.1-6,1.8-8.2c0.5-0.3-0.3-2.5-0.2-3.8c0.1-0.9,0.6-1.8,1-2.7c0,0-0.2,0-0.2,0
		C66.2,163.3,66.8,163.7,67.5,164z"/>
	<path class="st11" d="M104.2,208.1c0.4-5.1,0.8-10.2,1.3-15.4c0.3-2.9,1.2-5.8,0.9-8.6c-0.4-3.4,2.7-7.5-1.8-10.2
		c0.7-2,1.3-3.9,2-5.9c3.7,2.5,5.5,5.5,2.6,9.9c-0.6,1-0.3,2.5-0.4,3.8c-0.4,7.1-0.6,14.2-1.4,21.2
		C107.1,204.8,105.2,206.4,104.2,208.1z"/>
	<path class="st10" d="M71.6,142.1c-2.7,1-5.3,2-8,3c-3.2,1-2.4-1.2-1.6-2.4c0.9-1.4,2.4-2.4,3.6-3.6c0.4-0.2,0.8-0.3,1.2-0.5
		c-0.1-0.1-0.3-0.3-0.3-0.3c-0.4,0.2-0.7,0.4-1,0.6c-0.6-1.3-1.3-2.6-1.9-4c2.7,0.5,5.4,0.9,8.1,1.4
		C71.6,138.3,71.6,140.2,71.6,142.1z"/>
	<path class="st12" d="M71.6,136.4c-2.7-0.5-5.4-0.9-8.1-1.4c0-0.3,0-0.6,0-0.9c0.4-0.1,0.7-0.2,1.1-0.3c5.3,0.1,10.6,0.2,16,0.3
		C77.6,134.8,74.6,135.6,71.6,136.4z"/>
	<path class="st13" d="M58.7,253.3c-2.1,0.9-4.2,1.7-6.3,2.6c0-0.4,0-0.7,0-1.1c2-0.7,3.9-1.3,5.9-2C58.5,253,58.6,253.2,58.7,253.3
		z"/>
	<path class="st14" d="M94,132.9c-1.4,0.5-2.7,1-4.2,1.6c-0.2,1.5-0.3,3.2-0.6,5.7c-3.2-2.2-6-4.2-8.7-6.1c-0.1-0.9-0.3-1.8-0.4-2.8
		C84.7,131.9,89.3,132.4,94,132.9z"/>
	<path class="st15" d="M75.8,229c-0.7-1.6-1.5-3.3-2.2-4.9c3.8,0.2,7.7,0.8,11.5,0.6c4.1-0.2,8.2-0.9,12.3-1.5
		c1.9,4.6-2.4,6.3-4.5,8.8c-2.5,2.9-6.1,4.2-9.7,2.4C80.5,233,78.3,230.8,75.8,229z"/>
	<path class="st16" d="M97.5,223.2c-4.1,0.5-8.2,1.3-12.3,1.5c-3.8,0.1-7.7-0.4-11.5-0.6c-0.7-1.6-1.4-3.2-2-4.8
		c7-2.9,14.3-4.4,21.7-2.1c2.5,0.8,4.7,2.6,7.1,3.9C99.4,221.8,98.5,222.5,97.5,223.2z"/>
	<path class="st17" d="M107.3,250.2c-2.8-0.5-5.6-0.9-8.8-1.5c3.5-2.7,6.4-1.3,9.3,0.9C107.6,249.9,107.5,250.1,107.3,250.2z"/>
	<path class="st17" d="M111.5,253c0.5,0.3,0.9,0.6,1.4,1c-0.2,0.2-0.4,0.4-0.6,0.6C112.1,254,111.8,253.6,111.5,253L111.5,253z"/>
	<path class="st17" d="M107.8,249.7c0.6,0.4,1.3,0.8,1.9,1.1c-0.2,0.2-0.4,0.4-0.6,0.5c-0.6-0.4-1.2-0.8-1.8-1.1
		C107.5,250.1,107.6,249.9,107.8,249.7z"/>
	<path class="st17" d="M110.5,252.1c-0.4-0.2-0.9-0.5-1.3-0.7c0.2-0.2,0.4-0.4,0.6-0.5C110,251.2,110.3,251.6,110.5,252.1
		C110.5,252,110.5,252.1,110.5,252.1z"/>
	<path class="st17" d="M111.5,253.1c-0.3-0.3-0.7-0.7-1-1c0,0,0.1-0.1,0.1-0.1C110.9,252.3,111.2,252.7,111.5,253.1
		C111.5,253,111.5,253.1,111.5,253.1z"/>
	<path class="st18" d="M104.5,173.9c4.5,2.7,1.4,6.8,1.8,10.2c0.3,2.8-0.5,5.7-0.9,8.6c-12.9,2.6-25.8,2.9-38.7,0.1
		c-0.5-3.6-1-7.2-1.4-10.7c0.6-8.1,0.6-8.1,9.2-6.1C84.5,175.9,94.7,177,104.5,173.9z"/>
	<path class="st1" d="M108.5,143.2c-0.9-0.4-1.8-0.7-2.7-1.1C106.6,142.5,107.6,142.8,108.5,143.2z"/>
	<path class="st1" d="M109.5,144.1c-0.4-0.3-0.7-0.7-1.1-1C108.7,143.5,109.1,143.8,109.5,144.1z"/>
	<path class="st13" d="M62.3,249.9c2-1.1,4-2.2,6-3.3c0.2,0.5,0.4,0.9,0.6,1.4c-2.1,0.8-4.1,1.6-6.2,2.4
		C62.6,250.2,62.5,250,62.3,249.9z"/>
	<path class="st13" d="M62.8,250.3c-0.7,0.6-1.4,1.3-2.1,1.9c-0.1-0.2-0.3-0.3-0.4-0.5c0.7-0.6,1.4-1.2,2.1-1.9
		C62.5,250,62.6,250.2,62.8,250.3z"/>
	<path class="st13" d="M60.6,252.2c-0.6,0.4-1.3,0.7-1.9,1.1c-0.1-0.1-0.2-0.3-0.4-0.4c0.6-0.4,1.3-0.7,1.9-1.1
		C60.4,251.9,60.5,252.1,60.6,252.2z"/>
	<path class="st19" d="M73.1,148.1c1.9,2.6,4.3,4.7,3.9,5.6c-0.7,1.9-3,3.1-4.7,4.7c-1.3-1.4-3.7-3-3.6-4.3
		C68.8,152.3,71,150.8,73.1,148.1z"/>
	<path class="st1" d="M67.5,164c-0.7-0.4-1.3-0.7-2-1.1C66.2,163.3,66.8,163.7,67.5,164z"/>
	<path class="st20" d="M107.3,153.6c-2.6,2.1-4.1,4.3-5.9,4.5c-1.2,0.2-2.8-2.3-4.2-3.7c1.5-1.6,2.8-3.8,4.7-4.4
		C103,149.6,104.9,151.9,107.3,153.6z"/>
	<path class="st1" d="M65.4,139c0.3-0.2,0.7-0.5,1-0.6c0,0,0.2,0.2,0.3,0.3c-0.4,0.2-0.8,0.3-1.2,0.5C65.6,139.1,65.4,139,65.4,139z
		"/>
</g>
</svg>
